<svg xmlns="http://www.w3.org/2000/svg" xmlns:xlink="http://www.w3.org/1999/xlink" width="500" zoomAndPan="magnify" viewBox="0 0 375 374.999991" height="500" preserveAspectRatio="xMidYMid meet" version="1.0"><defs><g/></defs><path fill="#ffc021" d="M 83.054688 177.875 C 79.5625 167.636719 81.625 155.6875 88.339844 147.210938 C 92.394531 142.085938 98.480469 138.105469 105.011719 138.324219 C 109.675781 138.476562 114.023438 140.722656 117.878906 143.355469 C 121.734375 145.984375 125.304688 149.0625 129.429688 151.253906 C 137.65625 155.621094 147.320312 156.089844 156.628906 156.542969 C 161.109375 156.761719 165.8125 157.066406 169.609375 159.460938 C 175.667969 163.285156 177.613281 171.769531 175.320312 178.554688 C 173.027344 185.34375 167.332031 190.515625 161.042969 193.945312 C 148.546875 200.761719 133.679688 201.640625 119.46875 200.859375 C 113.410156 200.523438 107.308594 199.90625 101.546875 198.011719 C 95.785156 196.113281 90.335938 192.839844 86.695312 187.984375 C 83.058594 183.132812 81.445312 176.574219 83.054688 177.875 Z M 83.054688 177.875 " fill-opacity="1" fill-rule="nonzero"/><path fill="#004aad" d="M 107.203125 178.578125 C 107.210938 178.652344 107.222656 178.753906 107.234375 178.824219 C 107.222656 178.738281 107.210938 178.65625 107.203125 178.578125 Z M 107.203125 178.578125 " fill-opacity="1" fill-rule="nonzero"/><path fill="#004aad" d="M 129.71875 174.292969 C 129.71875 174.296875 129.71875 174.300781 129.722656 174.304688 C 129.71875 174.300781 129.71875 174.296875 129.71875 174.292969 Z M 129.71875 174.292969 " fill-opacity="1" fill-rule="nonzero"/><path fill="#004aad" d="M 177.675781 173.617188 C 177.261719 173.191406 176.667969 173.039062 176.109375 172.902344 C 175.355469 172.722656 174.59375 172.578125 173.835938 172.4375 C 171.980469 172.105469 170.132812 171.75 168.277344 171.421875 C 161.945312 170.292969 155.605469 169.179688 149.246094 168.21875 C 139.414062 166.730469 129.558594 165.414062 119.757812 163.757812 C 114.628906 162.851562 109.515625 161.875 104.410156 160.859375 C 100.554688 160.105469 96.710938 159.277344 92.832031 158.628906 C 91.578125 158.414062 90.324219 158.191406 89.0625 158.011719 C 88.253906 157.902344 87.429688 157.691406 86.613281 157.804688 C 86.179688 157.886719 85.761719 158.195312 85.644531 158.636719 C 85.59375 158.789062 85.589844 158.953125 85.617188 159.109375 C 85.648438 159.277344 85.6875 159.4375 85.707031 159.605469 C 85.714844 159.664062 85.722656 159.722656 85.742188 159.785156 C 86.800781 163.125 96.730469 167.796875 105.597656 169.941406 C 109.464844 170.875 113.394531 171.515625 117.328125 172.105469 C 127.835938 173.636719 138.402344 174.726562 148.957031 175.867188 C 148.824219 176.015625 148.710938 176.203125 148.636719 176.433594 C 148.15625 178.632812 148.164062 181.007812 147.832031 184.066406 C 147.71875 185.210938 147.597656 186.355469 147.484375 187.496094 C 146.476562 187.464844 145.464844 187.433594 144.457031 187.40625 C 140.066406 187.292969 135.675781 187.246094 131.289062 187.226562 C 131.082031 183.867188 130.890625 180.371094 130.441406 178 C 130.457031 178.109375 130.472656 178.21875 130.488281 178.328125 C 130.296875 177.097656 130.164062 176.699219 130.03125 175.953125 C 129.953125 175.566406 129.882812 175.179688 129.796875 174.792969 C 129.792969 174.78125 129.792969 174.769531 129.792969 174.753906 C 129.773438 174.644531 129.757812 174.53125 129.738281 174.421875 C 129.734375 174.382812 129.730469 174.34375 129.722656 174.304688 C 129.722656 174.3125 129.722656 174.316406 129.722656 174.324219 C 129.722656 174.316406 129.722656 174.3125 129.722656 174.304688 C 129.6875 174.171875 129.621094 174.050781 129.527344 173.953125 C 129.335938 173.757812 129.054688 173.695312 128.792969 173.761719 C 128.210938 173.929688 128.21875 174.484375 128.230469 174.984375 C 128.238281 174.914062 128.25 174.84375 128.257812 174.773438 C 128.199219 175.117188 128.203125 175.46875 128.171875 175.8125 C 128.15625 176.09375 128.128906 176.375 128.117188 176.652344 C 128.128906 176.5625 128.144531 176.472656 128.15625 176.382812 C 127.785156 179.648438 128.085938 182.941406 128.277344 186.210938 C 128.296875 186.546875 128.320312 186.882812 128.34375 187.21875 C 122.792969 187.207031 117.246094 187.226562 111.695312 187.195312 C 111.296875 184.984375 110.886719 182.769531 110.433594 180.566406 C 110.078125 178.707031 109.558594 176.886719 108.964844 175.085938 C 108.824219 174.625 108.683594 174.160156 108.542969 173.695312 C 108.53125 173.652344 108.492188 173.554688 108.464844 173.480469 C 108.472656 173.5 108.484375 173.523438 108.496094 173.550781 C 108.472656 173.4375 108.421875 173.332031 108.34375 173.246094 C 108.226562 173.066406 108.015625 172.945312 107.800781 172.933594 C 107.402344 172.855469 107 173.144531 106.890625 173.527344 C 106.859375 173.609375 106.863281 173.746094 106.871094 173.84375 C 106.890625 174.289062 106.921875 174.738281 106.945312 175.183594 C 107.054688 176.921875 107.03125 177.257812 107.191406 178.496094 C 107.191406 178.488281 107.191406 178.480469 107.1875 178.480469 C 107.191406 178.5 107.195312 178.519531 107.195312 178.539062 C 107.199219 178.550781 107.199219 178.566406 107.203125 178.578125 C 107.199219 178.570312 107.199219 178.5625 107.199219 178.550781 C 107.5625 181.179688 108.109375 183.777344 108.585938 186.382812 C 108.636719 186.648438 108.6875 186.914062 108.738281 187.175781 C 107.949219 187.171875 107.160156 187.160156 106.375 187.152344 C 104.167969 187.128906 101.964844 187.082031 99.757812 187.050781 C 99.027344 187.039062 98.296875 187.039062 97.570312 187.035156 C 97.246094 187.046875 96.898438 186.972656 96.605469 187.128906 C 95.496094 187.566406 95.8125 189.273438 97.039062 189.277344 C 101.097656 189.480469 105.15625 189.628906 109.21875 189.738281 C 109.675781 192.128906 110.140625 194.515625 110.644531 196.898438 C 110.898438 198.117188 111.105469 199.34375 111.300781 200.570312 C 111.308594 200.636719 111.320312 200.742188 111.328125 200.804688 C 111.339844 200.945312 111.363281 201.082031 111.386719 201.222656 L 111.386719 201.226562 C 111.242188 202.203125 112.472656 202.984375 113.3125 202.183594 C 113.496094 201.980469 113.597656 201.777344 113.664062 201.527344 C 113.675781 201.472656 113.683594 201.414062 113.691406 201.359375 C 113.6875 201.390625 113.683594 201.417969 113.679688 201.449219 C 113.726562 201.335938 113.726562 201.210938 113.726562 201.085938 C 113.738281 201.015625 113.746094 200.945312 113.75 200.875 C 113.734375 200.980469 113.722656 201.085938 113.707031 201.195312 C 113.824219 200.539062 113.699219 199.855469 113.648438 199.195312 C 113.441406 197.175781 113.121094 195.171875 112.765625 193.171875 C 112.5625 192.050781 112.363281 190.933594 112.164062 189.8125 C 117.617188 189.9375 123.074219 190.007812 128.53125 190.066406 C 128.722656 192.835938 128.921875 195.609375 129.035156 198.382812 C 129.09375 200.273438 131.832031 200.289062 131.90625 198.382812 C 131.960938 196.871094 131.796875 195.359375 131.710938 193.847656 C 131.628906 192.597656 131.550781 191.347656 131.46875 190.097656 C 134.472656 190.128906 137.480469 190.160156 140.484375 190.199219 C 142.742188 190.226562 145 190.195312 147.253906 190.128906 C 147.160156 191.445312 147.101562 192.761719 147.117188 194.085938 C 147.128906 194.820312 147.140625 195.550781 147.140625 196.28125 C 146.503906 196.421875 145.863281 196.558594 145.226562 196.699219 C 138.621094 198.148438 132.058594 199.769531 125.433594 201.113281 C 118.980469 202.539062 112.457031 203.558594 105.949219 204.671875 C 105.402344 204.777344 104.847656 204.855469 104.296875 204.941406 C 104 204.992188 103.683594 205 103.421875 205.164062 C 103.082031 205.382812 102.835938 205.792969 102.921875 206.203125 C 102.953125 206.609375 103.28125 206.96875 103.671875 207.074219 C 103.980469 207.144531 104.292969 207.078125 104.601562 207.046875 C 105.511719 206.9375 106.425781 206.828125 107.335938 206.71875 C 107.941406 206.648438 108.519531 206.578125 109.09375 206.507812 C 109.964844 206.40625 110.839844 206.304688 111.714844 206.207031 C 126.34375 204.726562 141.058594 203.847656 155.566406 201.347656 C 157.820312 200.980469 160.066406 200.582031 162.3125 200.1875 L 161.9375 200.238281 C 162.429688 200.164062 162.925781 200.078125 163.414062 199.96875 C 163.820312 199.988281 164.222656 199.832031 164.613281 199.722656 C 165.207031 199.523438 165.8125 199.304688 166.3125 198.925781 C 167.601562 198.027344 168.21875 196.527344 168.855469 195.152344 C 170.027344 192.609375 171.226562 190.082031 172.523438 187.605469 C 173.367188 185.988281 174.199219 184.363281 175.007812 182.726562 C 175.21875 182.222656 175.550781 181.746094 175.710938 181.226562 C 175.890625 180.804688 176.070312 180.386719 176.25 179.964844 C 176.398438 179.609375 176.542969 179.253906 176.691406 178.898438 C 176.695312 178.886719 176.699219 178.875 176.707031 178.859375 C 176.929688 178.375 177.242188 177.667969 177.742188 176.425781 C 177.847656 176.140625 177.953125 175.851562 178.011719 175.554688 L 178.007812 175.582031 C 178.179688 174.914062 178.195312 174.140625 177.671875 173.617188 Z M 167.851562 181.273438 C 165.707031 185.078125 163.367188 188.769531 160.894531 192.367188 C 160.65625 192.710938 160.417969 193.050781 160.179688 193.390625 C 158.0625 193.988281 155.90625 194.4375 153.753906 194.886719 C 152.152344 195.226562 150.550781 195.558594 148.949219 195.898438 C 148.957031 195.816406 148.972656 195.730469 148.984375 195.648438 C 148.972656 195.730469 148.960938 195.8125 148.949219 195.894531 C 148.953125 195.882812 148.957031 195.871094 148.957031 195.859375 C 149.167969 194.65625 149.472656 193.472656 149.707031 192.273438 C 149.929688 191.039062 150.023438 190.515625 150.097656 190.019531 C 152.601562 189.910156 155.101562 189.761719 157.601562 189.59375 C 157.769531 189.582031 157.933594 189.574219 158.101562 189.5625 C 158.128906 189.558594 158.152344 189.558594 158.179688 189.554688 C 158.195312 189.554688 158.214844 189.550781 158.230469 189.546875 C 158.457031 189.558594 158.679688 189.480469 158.839844 189.320312 C 159.320312 188.851562 158.972656 187.96875 158.289062 187.984375 C 155.664062 187.835938 153.039062 187.710938 150.414062 187.605469 C 150.792969 184.328125 151.21875 178.980469 151.277344 176.992188 C 151.316406 176.640625 151.242188 176.339844 151.097656 176.101562 C 151.316406 176.125 151.535156 176.148438 151.753906 176.171875 C 157.449219 176.761719 164.199219 177.609375 169.476562 178.261719 C 168.945312 179.273438 168.410156 180.28125 167.851562 181.277344 Z M 167.851562 181.273438 " fill-opacity="1" fill-rule="nonzero"/><path fill="#004aad" d="M 169.25 216.046875 C 168.933594 214.863281 167.804688 213.984375 166.585938 213.929688 C 166.054688 213.851562 165.515625 213.789062 164.976562 213.757812 C 162.179688 213.546875 159.378906 213.363281 156.582031 213.191406 C 144.546875 212.480469 132.515625 211.726562 120.484375 211.015625 C 114.523438 210.703125 108.554688 210.539062 102.59375 210.207031 C 100.214844 203.5625 96.65625 193.515625 93.691406 185.601562 C 89.304688 173.71875 84.746094 161.902344 80.34375 150.023438 C 80.136719 149.480469 79.9375 148.933594 79.730469 148.390625 C 79.421875 147.476562 79.050781 146.582031 78.59375 145.726562 C 78.488281 145.519531 78.523438 145.613281 78.585938 145.761719 C 77.890625 144.226562 76.625 142.859375 74.964844 142.425781 C 73.339844 142.113281 71.679688 142.140625 70.03125 142.078125 C 67.128906 141.992188 64.226562 141.957031 61.324219 141.945312 C 59.53125 141.976562 57.734375 142.027344 55.941406 142.109375 C 55.59375 142.125 55.25 142.144531 54.902344 142.171875 C 54.800781 142.164062 54.699219 142.152344 54.601562 142.140625 C 54.449219 142.136719 54.300781 142.15625 54.15625 142.191406 C 54.054688 142.183594 53.949219 142.179688 53.847656 142.1875 C 53.316406 142.160156 52.785156 142.363281 52.316406 142.613281 C 52.238281 142.648438 52.164062 142.691406 52.089844 142.738281 C 51.605469 143.054688 51.253906 143.46875 50.925781 143.945312 C 50.722656 144.351562 50.535156 144.769531 50.417969 145.210938 C 50.332031 145.621094 50.269531 146.042969 50.253906 146.460938 C 50.277344 146.8125 50.335938 147.175781 50.390625 147.53125 C 50.511719 147.949219 50.683594 148.367188 50.90625 148.746094 C 51.277344 149.320312 51.78125 149.773438 52.34375 150.160156 C 52.949219 150.539062 53.636719 150.789062 54.316406 150.996094 C 56.8125 151.589844 59.402344 151.574219 61.953125 151.628906 C 64.867188 151.726562 67.785156 151.785156 70.703125 151.882812 C 71.554688 154.109375 72.402344 156.339844 73.242188 158.574219 C 77.75 170.410156 81.734375 182.429688 85.8125 194.417969 C 87.335938 198.910156 88.808594 203.425781 90.578125 207.824219 C 90.496094 207.628906 90.414062 207.429688 90.328125 207.230469 C 90.796875 208.359375 91.242188 209.5 91.703125 210.632812 C 91.054688 211.136719 90.417969 211.660156 89.800781 212.203125 C 89.972656 212.070312 90.144531 211.9375 90.316406 211.804688 C 89.328125 212.546875 88.4375 213.441406 87.5625 214.3125 C 86.875 215.050781 86.242188 215.839844 85.667969 216.667969 C 85.308594 217.191406 85.015625 217.777344 84.867188 218.394531 C 84.710938 219.167969 84.78125 219.921875 85.191406 220.609375 C 85.335938 220.785156 85.453125 220.976562 85.605469 221.140625 C 85.800781 221.304688 86.003906 221.472656 86.21875 221.609375 C 86.433594 221.695312 86.644531 221.792969 86.863281 221.878906 C 87.128906 221.925781 87.402344 221.960938 87.667969 221.988281 C 89.136719 221.914062 90.441406 221.117188 91.578125 220.246094 C 93.398438 218.863281 95.121094 217.351562 96.785156 215.789062 C 96.863281 215.714844 96.941406 215.640625 97.019531 215.570312 C 97.371094 215.613281 97.722656 215.648438 98.074219 215.679688 C 105.5 216.402344 112.964844 216.449219 120.410156 216.878906 C 126.355469 217.195312 132.292969 217.617188 138.238281 217.972656 C 145.003906 218.382812 151.769531 218.773438 158.53125 219.203125 C 160.707031 219.339844 162.882812 219.480469 165.054688 219.640625 C 165.894531 219.679688 166.808594 219.855469 167.578125 219.453125 C 168.652344 219.089844 169.359375 217.929688 169.351562 216.816406 C 169.316406 216.558594 169.285156 216.304688 169.25 216.050781 Z M 169.25 216.046875 " fill-opacity="1" fill-rule="nonzero"/><path fill="#004aad" d="M 107.804688 229.371094 C 107.804688 229.949219 107.742188 230.519531 107.617188 231.082031 C 107.492188 231.648438 107.308594 232.199219 107.0625 232.730469 C 106.816406 233.261719 106.515625 233.769531 106.160156 234.246094 C 105.804688 234.726562 105.402344 235.167969 104.949219 235.578125 C 104.496094 235.984375 104.003906 236.347656 103.472656 236.667969 C 102.9375 236.988281 102.375 237.257812 101.785156 237.480469 C 101.195312 237.699219 100.582031 237.867188 99.957031 237.980469 C 99.328125 238.089844 98.695312 238.148438 98.054688 238.148438 C 97.414062 238.148438 96.777344 238.089844 96.152344 237.980469 C 95.523438 237.867188 94.914062 237.699219 94.320312 237.480469 C 93.730469 237.257812 93.167969 236.988281 92.636719 236.667969 C 92.101562 236.347656 91.609375 235.984375 91.15625 235.578125 C 90.703125 235.167969 90.300781 234.726562 89.945312 234.246094 C 89.589844 233.769531 89.289062 233.261719 89.042969 232.730469 C 88.800781 232.199219 88.613281 231.648438 88.488281 231.082031 C 88.363281 230.519531 88.300781 229.949219 88.300781 229.371094 C 88.300781 228.796875 88.363281 228.222656 88.488281 227.660156 C 88.613281 227.09375 88.800781 226.546875 89.042969 226.011719 C 89.289062 225.480469 89.589844 224.976562 89.945312 224.496094 C 90.300781 224.015625 90.703125 223.574219 91.15625 223.164062 C 91.609375 222.757812 92.101562 222.394531 92.636719 222.074219 C 93.167969 221.753906 93.730469 221.484375 94.320312 221.261719 C 94.914062 221.042969 95.523438 220.875 96.152344 220.765625 C 96.777344 220.652344 97.414062 220.59375 98.054688 220.59375 C 98.695312 220.59375 99.328125 220.652344 99.957031 220.765625 C 100.582031 220.875 101.195312 221.042969 101.785156 221.261719 C 102.375 221.484375 102.9375 221.753906 103.472656 222.074219 C 104.003906 222.394531 104.496094 222.757812 104.949219 223.164062 C 105.402344 223.574219 105.804688 224.015625 106.160156 224.496094 C 106.515625 224.976562 106.816406 225.480469 107.0625 226.011719 C 107.308594 226.546875 107.492188 227.09375 107.617188 227.660156 C 107.742188 228.222656 107.804688 228.796875 107.804688 229.371094 Z M 107.804688 229.371094 " fill-opacity="1" fill-rule="nonzero"/><path fill="#004aad" d="M 166.640625 229.371094 C 166.640625 229.949219 166.578125 230.519531 166.453125 231.082031 C 166.328125 231.648438 166.144531 232.199219 165.898438 232.730469 C 165.652344 233.261719 165.351562 233.769531 164.996094 234.246094 C 164.640625 234.726562 164.238281 235.167969 163.785156 235.578125 C 163.332031 235.984375 162.839844 236.347656 162.304688 236.667969 C 161.773438 236.988281 161.210938 237.257812 160.621094 237.480469 C 160.027344 237.699219 159.417969 237.867188 158.789062 237.980469 C 158.164062 238.089844 157.527344 238.148438 156.886719 238.148438 C 156.25 238.148438 155.613281 238.089844 154.984375 237.980469 C 154.359375 237.867188 153.75 237.699219 153.15625 237.480469 C 152.566406 237.257812 152.003906 236.988281 151.472656 236.667969 C 150.9375 236.347656 150.445312 235.984375 149.992188 235.578125 C 149.539062 235.167969 149.136719 234.726562 148.78125 234.246094 C 148.425781 233.769531 148.125 233.261719 147.878906 232.730469 C 147.632812 232.199219 147.449219 231.648438 147.324219 231.082031 C 147.199219 230.519531 147.136719 229.949219 147.136719 229.371094 C 147.136719 228.796875 147.199219 228.222656 147.324219 227.660156 C 147.449219 227.09375 147.632812 226.546875 147.878906 226.011719 C 148.125 225.480469 148.425781 224.976562 148.78125 224.496094 C 149.136719 224.015625 149.539062 223.574219 149.992188 223.164062 C 150.445312 222.757812 150.9375 222.394531 151.472656 222.074219 C 152.003906 221.753906 152.566406 221.484375 153.15625 221.261719 C 153.75 221.042969 154.359375 220.875 154.984375 220.765625 C 155.613281 220.652344 156.25 220.59375 156.886719 220.59375 C 157.527344 220.59375 158.164062 220.652344 158.789062 220.765625 C 159.417969 220.875 160.027344 221.042969 160.621094 221.261719 C 161.210938 221.484375 161.773438 221.753906 162.304688 222.074219 C 162.839844 222.394531 163.332031 222.757812 163.785156 223.164062 C 164.238281 223.574219 164.640625 224.015625 164.996094 224.496094 C 165.351562 224.976562 165.652344 225.480469 165.898438 226.011719 C 166.144531 226.546875 166.328125 227.09375 166.453125 227.660156 C 166.578125 228.222656 166.640625 228.796875 166.640625 229.371094 Z M 166.640625 229.371094 " fill-opacity="1" fill-rule="nonzero"/><g fill="#004aad" fill-opacity="1"><g transform="translate(194.436364, 179.980608)"><g><path d="M 1.71875 -15.359375 C 1.71875 -18.617188 2.535156 -21.144531 4.171875 -22.9375 C 5.816406 -24.726562 8.085938 -25.625 10.984375 -25.625 C 13.878906 -25.625 16.144531 -24.726562 17.78125 -22.9375 C 19.425781 -21.144531 20.25 -18.617188 20.25 -15.359375 L 20.25 -9.765625 C 20.25 -6.410156 19.425781 -3.859375 17.78125 -2.109375 C 16.144531 -0.367188 13.878906 0.5 10.984375 0.5 C 8.085938 0.5 5.816406 -0.367188 4.171875 -2.109375 C 2.535156 -3.859375 1.71875 -6.410156 1.71875 -9.765625 Z M 10.984375 -3.796875 C 11.847656 -3.796875 12.566406 -3.929688 13.140625 -4.203125 C 13.710938 -4.484375 14.175781 -4.875 14.53125 -5.375 C 14.894531 -5.882812 15.144531 -6.484375 15.28125 -7.171875 C 15.425781 -7.867188 15.5 -8.632812 15.5 -9.46875 L 15.5 -15.640625 C 15.5 -16.429688 15.414062 -17.175781 15.25 -17.875 C 15.082031 -18.570312 14.816406 -19.171875 14.453125 -19.671875 C 14.097656 -20.171875 13.632812 -20.566406 13.0625 -20.859375 C 12.488281 -21.160156 11.796875 -21.3125 10.984375 -21.3125 C 10.171875 -21.3125 9.476562 -21.160156 8.90625 -20.859375 C 8.332031 -20.566406 7.863281 -20.171875 7.5 -19.671875 C 7.144531 -19.171875 6.878906 -18.570312 6.703125 -17.875 C 6.535156 -17.175781 6.453125 -16.429688 6.453125 -15.640625 L 6.453125 -9.46875 C 6.453125 -8.632812 6.523438 -7.867188 6.671875 -7.171875 C 6.816406 -6.484375 7.066406 -5.882812 7.421875 -5.375 C 7.785156 -4.875 8.253906 -4.484375 8.828125 -4.203125 C 9.398438 -3.929688 10.117188 -3.796875 10.984375 -3.796875 Z M 10.984375 -3.796875 "/></g></g></g><g fill="#004aad" fill-opacity="1"><g transform="translate(215.140395, 179.980608)"><g><path d="M 7.328125 0 L 2.796875 0 L 2.796875 -17.796875 L 7.328125 -17.796875 L 7.328125 -15.140625 L 7.96875 -15.140625 C 8.375 -16.148438 9.03125 -16.925781 9.9375 -17.46875 C 10.851562 -18.019531 11.921875 -18.296875 13.140625 -18.296875 C 13.992188 -18.296875 14.796875 -18.160156 15.546875 -17.890625 C 16.304688 -17.617188 16.972656 -17.191406 17.546875 -16.609375 C 18.117188 -16.035156 18.566406 -15.304688 18.890625 -14.421875 C 19.210938 -13.535156 19.375 -12.484375 19.375 -11.265625 L 19.375 0 L 14.859375 0 L 14.859375 -10.125 C 14.859375 -11.382812 14.550781 -12.378906 13.9375 -13.109375 C 13.332031 -13.847656 12.457031 -14.21875 11.3125 -14.21875 C 9.96875 -14.21875 8.96875 -13.765625 8.3125 -12.859375 C 7.65625 -11.960938 7.328125 -10.765625 7.328125 -9.265625 Z M 7.328125 0 "/></g></g></g><g fill="#004aad" fill-opacity="1"><g transform="translate(235.844427, 179.980608)"><g><path d="M 2.6875 -4.3125 L 8.9375 -4.3125 L 8.9375 -20.8125 L 2.90625 -20.8125 L 2.90625 -25.125 L 13.453125 -25.125 L 13.453125 -4.3125 L 19.265625 -4.3125 L 19.265625 0 L 2.6875 0 Z M 2.6875 -4.3125 "/></g></g></g><g fill="#004aad" fill-opacity="1"><g transform="translate(256.548458, 179.980608)"><g><path d="M 3.125 -4.3125 L 9.15625 -4.3125 L 9.15625 -13.5 L 3.546875 -13.5 L 3.546875 -17.796875 L 13.671875 -17.796875 L 13.671875 -4.3125 L 18.84375 -4.3125 L 18.84375 0 L 3.125 0 Z M 14.78125 -23.078125 C 14.78125 -22.597656 14.691406 -22.148438 14.515625 -21.734375 C 14.335938 -21.316406 14.09375 -20.957031 13.78125 -20.65625 C 13.46875 -20.351562 13.101562 -20.113281 12.6875 -19.9375 C 12.269531 -19.757812 11.832031 -19.671875 11.375 -19.671875 C 10.894531 -19.671875 10.453125 -19.757812 10.046875 -19.9375 C 9.640625 -20.113281 9.28125 -20.351562 8.96875 -20.65625 C 8.65625 -20.957031 8.410156 -21.316406 8.234375 -21.734375 C 8.054688 -22.148438 7.96875 -22.597656 7.96875 -23.078125 C 7.96875 -23.554688 8.054688 -24.003906 8.234375 -24.421875 C 8.410156 -24.835938 8.65625 -25.195312 8.96875 -25.5 C 9.28125 -25.800781 9.640625 -26.039062 10.046875 -26.21875 C 10.453125 -26.394531 10.894531 -26.484375 11.375 -26.484375 C 11.832031 -26.484375 12.269531 -26.394531 12.6875 -26.21875 C 13.101562 -26.039062 13.46875 -25.800781 13.78125 -25.5 C 14.09375 -25.195312 14.335938 -24.835938 14.515625 -24.421875 C 14.691406 -24.003906 14.78125 -23.554688 14.78125 -23.078125 Z M 14.78125 -23.078125 "/></g></g></g><g fill="#004aad" fill-opacity="1"><g transform="translate(277.252489, 179.980608)"><g><path d="M 7.328125 0 L 2.796875 0 L 2.796875 -17.796875 L 7.328125 -17.796875 L 7.328125 -15.140625 L 7.96875 -15.140625 C 8.375 -16.148438 9.03125 -16.925781 9.9375 -17.46875 C 10.851562 -18.019531 11.921875 -18.296875 13.140625 -18.296875 C 13.992188 -18.296875 14.796875 -18.160156 15.546875 -17.890625 C 16.304688 -17.617188 16.972656 -17.191406 17.546875 -16.609375 C 18.117188 -16.035156 18.566406 -15.304688 18.890625 -14.421875 C 19.210938 -13.535156 19.375 -12.484375 19.375 -11.265625 L 19.375 0 L 14.859375 0 L 14.859375 -10.125 C 14.859375 -11.382812 14.550781 -12.378906 13.9375 -13.109375 C 13.332031 -13.847656 12.457031 -14.21875 11.3125 -14.21875 C 9.96875 -14.21875 8.96875 -13.765625 8.3125 -12.859375 C 7.65625 -11.960938 7.328125 -10.765625 7.328125 -9.265625 Z M 7.328125 0 "/></g></g></g><g fill="#004aad" fill-opacity="1"><g transform="translate(297.956521, 179.980608)"><g><path d="M 6.78125 -7.421875 C 6.800781 -6.898438 6.925781 -6.414062 7.15625 -5.96875 C 7.382812 -5.53125 7.695312 -5.148438 8.09375 -4.828125 C 8.488281 -4.503906 8.941406 -4.25 9.453125 -4.0625 C 9.972656 -3.882812 10.519531 -3.796875 11.09375 -3.796875 C 12.21875 -3.796875 13.078125 -3.992188 13.671875 -4.390625 C 14.273438 -4.785156 14.707031 -5.257812 14.96875 -5.8125 L 18.84375 -3.65625 C 18.625 -3.207031 18.320312 -2.734375 17.9375 -2.234375 C 17.5625 -1.742188 17.066406 -1.296875 16.453125 -0.890625 C 15.847656 -0.484375 15.109375 -0.148438 14.234375 0.109375 C 13.359375 0.367188 12.332031 0.5 11.15625 0.5 C 9.820312 0.5 8.601562 0.285156 7.5 -0.140625 C 6.394531 -0.578125 5.441406 -1.203125 4.640625 -2.015625 C 3.847656 -2.828125 3.226562 -3.816406 2.78125 -4.984375 C 2.34375 -6.160156 2.125 -7.488281 2.125 -8.96875 L 2.125 -9.1875 C 2.125 -10.550781 2.351562 -11.796875 2.8125 -12.921875 C 3.28125 -14.046875 3.921875 -15 4.734375 -15.78125 C 5.546875 -16.570312 6.492188 -17.1875 7.578125 -17.625 C 8.671875 -18.070312 9.84375 -18.296875 11.09375 -18.296875 C 12.625 -18.296875 13.9375 -18.023438 15.03125 -17.484375 C 16.132812 -16.953125 17.046875 -16.273438 17.765625 -15.453125 C 18.484375 -14.628906 19.007812 -13.71875 19.34375 -12.71875 C 19.675781 -11.726562 19.84375 -10.765625 19.84375 -9.828125 L 19.84375 -7.421875 Z M 11.046875 -14.21875 C 9.898438 -14.21875 8.96875 -13.921875 8.25 -13.328125 C 7.53125 -12.742188 7.066406 -12.070312 6.859375 -11.3125 L 15.25 -11.3125 C 15.101562 -12.144531 14.65625 -12.835938 13.90625 -13.390625 C 13.15625 -13.941406 12.203125 -14.21875 11.046875 -14.21875 Z M 11.046875 -14.21875 "/></g></g></g><g fill="#004aad" fill-opacity="1"><g transform="translate(194.436364, 213.730606)"><g><path d="M 15.296875 -17.4375 C 15.296875 -18.445312 14.90625 -19.320312 14.125 -20.0625 C 13.34375 -20.800781 12.25 -21.171875 10.84375 -21.171875 C 9.644531 -21.171875 8.695312 -20.925781 8 -20.4375 C 7.3125 -19.945312 6.96875 -19.285156 6.96875 -18.453125 C 6.96875 -18.015625 7.050781 -17.625 7.21875 -17.28125 C 7.382812 -16.9375 7.675781 -16.625 8.09375 -16.34375 C 8.507812 -16.070312 9.054688 -15.828125 9.734375 -15.609375 C 10.421875 -15.398438 11.289062 -15.195312 12.34375 -15 C 14.976562 -14.519531 16.988281 -13.71875 18.375 -12.59375 C 19.757812 -11.46875 20.453125 -9.804688 20.453125 -7.609375 L 20.453125 -7.171875 C 20.453125 -6.003906 20.242188 -4.945312 19.828125 -4 C 19.410156 -3.050781 18.804688 -2.242188 18.015625 -1.578125 C 17.222656 -0.910156 16.265625 -0.394531 15.140625 -0.03125 C 14.015625 0.320312 12.75 0.5 11.34375 0.5 C 9.6875 0.5 8.226562 0.269531 6.96875 -0.1875 C 5.71875 -0.65625 4.671875 -1.300781 3.828125 -2.125 C 2.992188 -2.957031 2.363281 -3.929688 1.9375 -5.046875 C 1.507812 -6.160156 1.296875 -7.375 1.296875 -8.6875 L 1.296875 -9.765625 L 6.03125 -9.765625 L 6.03125 -8.90625 C 6.03125 -7.394531 6.46875 -6.191406 7.34375 -5.296875 C 8.21875 -4.398438 9.570312 -3.953125 11.40625 -3.953125 C 12.84375 -3.953125 13.90625 -4.257812 14.59375 -4.875 C 15.289062 -5.5 15.640625 -6.242188 15.640625 -7.109375 C 15.640625 -7.515625 15.566406 -7.898438 15.421875 -8.265625 C 15.285156 -8.640625 15.035156 -8.972656 14.671875 -9.265625 C 14.316406 -9.566406 13.828125 -9.835938 13.203125 -10.078125 C 12.585938 -10.316406 11.800781 -10.523438 10.84375 -10.703125 C 9.570312 -10.910156 8.410156 -11.1875 7.359375 -11.53125 C 6.304688 -11.882812 5.390625 -12.347656 4.609375 -12.921875 C 3.835938 -13.492188 3.234375 -14.207031 2.796875 -15.0625 C 2.367188 -15.925781 2.15625 -16.984375 2.15625 -18.234375 L 2.15625 -18.453125 C 2.15625 -19.472656 2.363281 -20.421875 2.78125 -21.296875 C 3.195312 -22.171875 3.78125 -22.929688 4.53125 -23.578125 C 5.289062 -24.222656 6.203125 -24.722656 7.265625 -25.078125 C 8.328125 -25.441406 9.519531 -25.625 10.84375 -25.625 C 12.320312 -25.625 13.632812 -25.414062 14.78125 -25 C 15.9375 -24.582031 16.898438 -24.015625 17.671875 -23.296875 C 18.453125 -22.578125 19.039062 -21.75 19.4375 -20.8125 C 19.832031 -19.882812 20.03125 -18.90625 20.03125 -17.875 L 20.03125 -16.578125 L 15.296875 -16.578125 Z M 15.296875 -17.4375 "/></g></g></g><g fill="#004aad" fill-opacity="1"><g transform="translate(215.140395, 213.730606)"><g><path d="M 2.296875 -17.796875 L 7.578125 -17.796875 L 7.578125 -25.125 L 12.09375 -25.125 L 12.09375 -17.796875 L 18.515625 -17.796875 L 18.515625 -13.5 L 12.09375 -13.5 L 12.09375 -5.390625 C 12.09375 -4.671875 12.414062 -4.3125 13.0625 -4.3125 L 17.875 -4.3125 L 17.875 0 L 10.34375 0 C 9.519531 0 8.851562 -0.257812 8.34375 -0.78125 C 7.832031 -1.3125 7.578125 -1.984375 7.578125 -2.796875 L 7.578125 -13.5 L 2.296875 -13.5 Z M 2.296875 -17.796875 "/></g></g></g><g fill="#004aad" fill-opacity="1"><g transform="translate(235.844427, 213.730606)"><g><path d="M 20.25 -8.6875 C 20.25 -7.195312 19.992188 -5.882812 19.484375 -4.75 C 18.984375 -3.613281 18.300781 -2.65625 17.4375 -1.875 C 16.582031 -1.101562 15.597656 -0.515625 14.484375 -0.109375 C 13.367188 0.296875 12.203125 0.5 10.984375 0.5 C 9.765625 0.5 8.597656 0.296875 7.484375 -0.109375 C 6.367188 -0.515625 5.378906 -1.101562 4.515625 -1.875 C 3.660156 -2.65625 2.976562 -3.613281 2.46875 -4.75 C 1.96875 -5.882812 1.71875 -7.195312 1.71875 -8.6875 L 1.71875 -9.109375 C 1.71875 -10.578125 1.96875 -11.878906 2.46875 -13.015625 C 2.976562 -14.148438 3.660156 -15.109375 4.515625 -15.890625 C 5.378906 -16.679688 6.367188 -17.28125 7.484375 -17.6875 C 8.597656 -18.09375 9.765625 -18.296875 10.984375 -18.296875 C 12.203125 -18.296875 13.367188 -18.09375 14.484375 -17.6875 C 15.597656 -17.28125 16.582031 -16.679688 17.4375 -15.890625 C 18.300781 -15.109375 18.984375 -14.148438 19.484375 -13.015625 C 19.992188 -11.878906 20.25 -10.578125 20.25 -9.109375 Z M 10.984375 -3.796875 C 11.628906 -3.796875 12.238281 -3.90625 12.8125 -4.125 C 13.382812 -4.34375 13.882812 -4.65625 14.3125 -5.0625 C 14.75 -5.46875 15.09375 -5.960938 15.34375 -6.546875 C 15.59375 -7.128906 15.71875 -7.796875 15.71875 -8.546875 L 15.71875 -9.265625 C 15.71875 -10.003906 15.59375 -10.664062 15.34375 -11.25 C 15.09375 -11.832031 14.75 -12.328125 14.3125 -12.734375 C 13.882812 -13.140625 13.382812 -13.453125 12.8125 -13.671875 C 12.238281 -13.890625 11.628906 -14 10.984375 -14 C 10.335938 -14 9.726562 -13.890625 9.15625 -13.671875 C 8.582031 -13.453125 8.078125 -13.140625 7.640625 -12.734375 C 7.210938 -12.328125 6.875 -11.832031 6.625 -11.25 C 6.375 -10.664062 6.25 -10.003906 6.25 -9.265625 L 6.25 -8.546875 C 6.25 -7.796875 6.375 -7.128906 6.625 -6.546875 C 6.875 -5.960938 7.210938 -5.46875 7.640625 -5.0625 C 8.078125 -4.65625 8.582031 -4.34375 9.15625 -4.125 C 9.726562 -3.90625 10.335938 -3.796875 10.984375 -3.796875 Z M 10.984375 -3.796875 "/></g></g></g><g fill="#004aad" fill-opacity="1"><g transform="translate(256.548458, 213.730606)"><g><path d="M 1.9375 -17.796875 L 9.46875 -17.796875 L 9.46875 -15.21875 L 10.125 -15.21875 C 10.457031 -16.195312 11.023438 -16.953125 11.828125 -17.484375 C 12.628906 -18.023438 13.59375 -18.296875 14.71875 -18.296875 C 16.488281 -18.296875 17.910156 -17.738281 18.984375 -16.625 C 20.054688 -15.519531 20.59375 -13.832031 20.59375 -11.5625 L 20.59375 -10.765625 L 15.9375 -10.34375 L 15.9375 -10.84375 C 15.9375 -11.820312 15.679688 -12.601562 15.171875 -13.1875 C 14.671875 -13.769531 13.921875 -14.0625 12.921875 -14.0625 C 11.910156 -14.0625 11.117188 -13.710938 10.546875 -13.015625 C 9.972656 -12.328125 9.6875 -11.335938 9.6875 -10.046875 L 9.6875 -4.3125 L 13.78125 -4.3125 L 13.78125 0 L 1.5 0 L 1.5 -4.3125 L 5.171875 -4.3125 L 5.171875 -13.5 L 1.9375 -13.5 Z M 1.9375 -17.796875 "/></g></g></g><g fill="#004aad" fill-opacity="1"><g transform="translate(277.252489, 213.730606)"><g><path d="M 6.78125 -7.421875 C 6.800781 -6.898438 6.925781 -6.414062 7.15625 -5.96875 C 7.382812 -5.53125 7.695312 -5.148438 8.09375 -4.828125 C 8.488281 -4.503906 8.941406 -4.25 9.453125 -4.0625 C 9.972656 -3.882812 10.519531 -3.796875 11.09375 -3.796875 C 12.21875 -3.796875 13.078125 -3.992188 13.671875 -4.390625 C 14.273438 -4.785156 14.707031 -5.257812 14.96875 -5.8125 L 18.84375 -3.65625 C 18.625 -3.207031 18.320312 -2.734375 17.9375 -2.234375 C 17.5625 -1.742188 17.066406 -1.296875 16.453125 -0.890625 C 15.847656 -0.484375 15.109375 -0.148438 14.234375 0.109375 C 13.359375 0.367188 12.332031 0.5 11.15625 0.5 C 9.820312 0.5 8.601562 0.285156 7.5 -0.140625 C 6.394531 -0.578125 5.441406 -1.203125 4.640625 -2.015625 C 3.847656 -2.828125 3.226562 -3.816406 2.78125 -4.984375 C 2.34375 -6.160156 2.125 -7.488281 2.125 -8.96875 L 2.125 -9.1875 C 2.125 -10.550781 2.351562 -11.796875 2.8125 -12.921875 C 3.28125 -14.046875 3.921875 -15 4.734375 -15.78125 C 5.546875 -16.570312 6.492188 -17.1875 7.578125 -17.625 C 8.671875 -18.070312 9.84375 -18.296875 11.09375 -18.296875 C 12.625 -18.296875 13.9375 -18.023438 15.03125 -17.484375 C 16.132812 -16.953125 17.046875 -16.273438 17.765625 -15.453125 C 18.484375 -14.628906 19.007812 -13.71875 19.34375 -12.71875 C 19.675781 -11.726562 19.84375 -10.765625 19.84375 -9.828125 L 19.84375 -7.421875 Z M 11.046875 -14.21875 C 9.898438 -14.21875 8.96875 -13.921875 8.25 -13.328125 C 7.53125 -12.742188 7.066406 -12.070312 6.859375 -11.3125 L 15.25 -11.3125 C 15.101562 -12.144531 14.65625 -12.835938 13.90625 -13.390625 C 13.15625 -13.941406 12.203125 -14.21875 11.046875 -14.21875 Z M 11.046875 -14.21875 "/></g></g></g><g fill="#361a3e" fill-opacity="1"><g transform="translate(196.454699, 231.287666)"><g><path d="M 3.640625 -8.40625 C 4.085938 -8.40625 4.523438 -8.335938 4.953125 -8.203125 C 5.378906 -8.078125 5.695312 -7.945312 5.90625 -7.8125 L 6.203125 -7.625 L 5.4375 -6.125 C 5.375 -6.164062 5.289062 -6.21875 5.1875 -6.28125 C 5.082031 -6.34375 4.882812 -6.425781 4.59375 -6.53125 C 4.300781 -6.632812 4.023438 -6.6875 3.765625 -6.6875 C 3.453125 -6.6875 3.210938 -6.617188 3.046875 -6.484375 C 2.878906 -6.359375 2.796875 -6.179688 2.796875 -5.953125 C 2.796875 -5.835938 2.832031 -5.726562 2.90625 -5.625 C 2.988281 -5.53125 3.125 -5.425781 3.3125 -5.3125 C 3.507812 -5.207031 3.679688 -5.117188 3.828125 -5.046875 C 3.972656 -4.984375 4.203125 -4.890625 4.515625 -4.765625 C 5.046875 -4.535156 5.5 -4.222656 5.875 -3.828125 C 6.25 -3.441406 6.4375 -3.003906 6.4375 -2.515625 C 6.4375 -2.035156 6.351562 -1.617188 6.1875 -1.265625 C 6.019531 -0.910156 5.785156 -0.632812 5.484375 -0.4375 C 5.191406 -0.238281 4.863281 -0.09375 4.5 0 C 4.132812 0.101562 3.742188 0.15625 3.328125 0.15625 C 2.972656 0.15625 2.617188 0.117188 2.265625 0.046875 C 1.921875 -0.0234375 1.628906 -0.117188 1.390625 -0.234375 C 1.160156 -0.347656 0.953125 -0.457031 0.765625 -0.5625 C 0.578125 -0.664062 0.441406 -0.753906 0.359375 -0.828125 L 0.234375 -0.9375 L 1.171875 -2.515625 C 1.253906 -2.453125 1.363281 -2.367188 1.5 -2.265625 C 1.632812 -2.160156 1.878906 -2.019531 2.234375 -1.84375 C 2.597656 -1.675781 2.914062 -1.59375 3.1875 -1.59375 C 3.976562 -1.59375 4.375 -1.863281 4.375 -2.40625 C 4.375 -2.507812 4.34375 -2.609375 4.28125 -2.703125 C 4.226562 -2.804688 4.128906 -2.90625 3.984375 -3 C 3.847656 -3.101562 3.722656 -3.179688 3.609375 -3.234375 C 3.503906 -3.285156 3.328125 -3.367188 3.078125 -3.484375 C 2.828125 -3.609375 2.640625 -3.703125 2.515625 -3.765625 C 2.015625 -4.003906 1.628906 -4.304688 1.359375 -4.671875 C 1.085938 -5.046875 0.953125 -5.445312 0.953125 -5.875 C 0.953125 -6.613281 1.222656 -7.21875 1.765625 -7.6875 C 2.316406 -8.164062 2.941406 -8.40625 3.640625 -8.40625 Z M 3.640625 -8.40625 "/></g></g></g><g fill="#361a3e" fill-opacity="1"><g transform="translate(208.802072, 231.287666)"><g><path d="M 2.484375 -3.3125 L 2.484375 0 L 0.59375 0 L 0.59375 -8.25 L 2.484375 -8.25 L 2.484375 -4.953125 L 5.140625 -4.953125 L 5.140625 -8.25 L 7.015625 -8.25 L 7.015625 0 L 5.140625 0 L 5.140625 -3.3125 Z M 2.484375 -3.3125 "/></g></g></g><g fill="#361a3e" fill-opacity="1"><g transform="translate(222.049088, 231.287666)"><g><path d="M 0.234375 -4.125 C 0.234375 -5.320312 0.640625 -6.332031 1.453125 -7.15625 C 2.265625 -7.988281 3.242188 -8.40625 4.390625 -8.40625 C 5.546875 -8.40625 6.523438 -7.992188 7.328125 -7.171875 C 8.140625 -6.347656 8.546875 -5.332031 8.546875 -4.125 C 8.546875 -2.914062 8.144531 -1.898438 7.34375 -1.078125 C 6.550781 -0.253906 5.566406 0.15625 4.390625 0.15625 C 3.179688 0.15625 2.1875 -0.25 1.40625 -1.0625 C 0.625 -1.882812 0.234375 -2.90625 0.234375 -4.125 Z M 2.265625 -4.125 C 2.265625 -3.695312 2.328125 -3.300781 2.453125 -2.9375 C 2.585938 -2.582031 2.820312 -2.28125 3.15625 -2.03125 C 3.488281 -1.789062 3.898438 -1.671875 4.390625 -1.671875 C 5.085938 -1.671875 5.613281 -1.910156 5.96875 -2.390625 C 6.332031 -2.867188 6.515625 -3.445312 6.515625 -4.125 C 6.515625 -4.800781 6.332031 -5.378906 5.96875 -5.859375 C 5.601562 -6.347656 5.078125 -6.59375 4.390625 -6.59375 C 3.710938 -6.59375 3.1875 -6.347656 2.8125 -5.859375 C 2.445312 -5.378906 2.265625 -4.800781 2.265625 -4.125 Z M 2.265625 -4.125 "/></g></g></g><g fill="#361a3e" fill-opacity="1"><g transform="translate(236.445651, 231.287666)"><g><path d="M 0.59375 -8.25 L 3.609375 -8.25 C 4.453125 -8.25 5.132812 -8.03125 5.65625 -7.59375 C 6.175781 -7.164062 6.4375 -6.535156 6.4375 -5.703125 C 6.4375 -4.878906 6.171875 -4.234375 5.640625 -3.765625 C 5.109375 -3.296875 4.429688 -3.0625 3.609375 -3.0625 L 2.484375 -3.0625 L 2.484375 0 L 0.59375 0 Z M 2.484375 -4.5625 L 3.015625 -4.5625 C 3.429688 -4.5625 3.773438 -4.644531 4.046875 -4.8125 C 4.316406 -4.976562 4.453125 -5.257812 4.453125 -5.65625 C 4.453125 -6.039062 4.316406 -6.316406 4.046875 -6.484375 C 3.773438 -6.660156 3.429688 -6.75 3.015625 -6.75 L 2.484375 -6.75 Z M 2.484375 -4.5625 "/></g></g></g><g fill="#361a3e" fill-opacity="1"><g transform="translate(248.733046, 231.287666)"><g/></g></g><g fill="#361a3e" fill-opacity="1"><g transform="translate(257.091993, 231.287666)"><g><path d="M 2.484375 -5.125 L 2.484375 0 L 0.59375 0 L 0.59375 -8.25 L 2.484375 -8.25 L 5.765625 -3.125 L 5.78125 -3.125 L 5.78125 -8.25 L 7.65625 -8.25 L 7.65625 0 L 5.78125 0 L 2.5 -5.125 Z M 2.484375 -5.125 "/></g></g></g><g fill="#361a3e" fill-opacity="1"><g transform="translate(270.978757, 231.287666)"><g><path d="M 0.234375 -4.125 C 0.234375 -5.320312 0.640625 -6.332031 1.453125 -7.15625 C 2.265625 -7.988281 3.242188 -8.40625 4.390625 -8.40625 C 5.546875 -8.40625 6.523438 -7.992188 7.328125 -7.171875 C 8.140625 -6.347656 8.546875 -5.332031 8.546875 -4.125 C 8.546875 -2.914062 8.144531 -1.898438 7.34375 -1.078125 C 6.550781 -0.253906 5.566406 0.15625 4.390625 0.15625 C 3.179688 0.15625 2.1875 -0.25 1.40625 -1.0625 C 0.625 -1.882812 0.234375 -2.90625 0.234375 -4.125 Z M 2.265625 -4.125 C 2.265625 -3.695312 2.328125 -3.300781 2.453125 -2.9375 C 2.585938 -2.582031 2.820312 -2.28125 3.15625 -2.03125 C 3.488281 -1.789062 3.898438 -1.671875 4.390625 -1.671875 C 5.085938 -1.671875 5.613281 -1.910156 5.96875 -2.390625 C 6.332031 -2.867188 6.515625 -3.445312 6.515625 -4.125 C 6.515625 -4.800781 6.332031 -5.378906 5.96875 -5.859375 C 5.601562 -6.347656 5.078125 -6.59375 4.390625 -6.59375 C 3.710938 -6.59375 3.1875 -6.347656 2.8125 -5.859375 C 2.445312 -5.378906 2.265625 -4.800781 2.265625 -4.125 Z M 2.265625 -4.125 "/></g></g></g><g fill="#361a3e" fill-opacity="1"><g transform="translate(285.37532, 231.287666)"><g><path d="M 6.9375 0 L 5.609375 -4.625 L 4.296875 0 L 2.203125 0 L -0.15625 -8.25 L 1.9375 -8.25 L 3.34375 -2.59375 L 3.40625 -2.59375 L 4.90625 -8.25 L 6.3125 -8.25 L 7.8125 -2.59375 L 7.875 -2.59375 L 9.28125 -8.25 L 11.359375 -8.25 L 9.015625 0 Z M 6.9375 0 "/></g></g></g></svg>